<?xml version="1.0" standalone="no"?>
<!DOCTYPE svg PUBLIC "-//W3C//DTD SVG 20010904//EN"
 "http://www.w3.org/TR/2001/REC-SVG-20010904/DTD/svg10.dtd">
<svg version="1.0" xmlns="http://www.w3.org/2000/svg"
 width="917.000000pt" height="605.000000pt" viewBox="0 0 917.000000 605.000000"
 preserveAspectRatio="xMidYMid meet">
<metadata>
Created by potrace 1.16, written by Peter Selinger 2001-2019
</metadata>
<g transform="translate(0.000000,605.000000) scale(0.100000,-0.100000)"
fill="#000000" stroke="none">
<path d="M5220 5959 c-353 -96 -949 -256 -2025 -543 -379 -102 -890 -238
-1135 -304 -456 -123 -987 -265 -1579 -423 -204 -54 -351 -99 -377 -114 -23
-14 -55 -43 -72 -65 l-30 -41 0 -161 -1 -161 84 -316 c46 -174 142 -532 213
-796 116 -429 322 -1201 342 -1280 4 -16 24 -88 43 -160 20 -71 54 -200 77
-285 43 -160 156 -445 193 -487 28 -32 123 -65 182 -65 65 0 441 95 1140 287
308 84 569 155 579 157 25 4 22 13 180 -586 131 -497 140 -523 210 -584 l37
-32 168 0 c117 0 182 4 217 15 77 22 3338 897 3909 1049 281 74 609 162 730
196 121 34 340 92 487 130 235 61 273 73 309 102 66 53 69 64 69 274 l0 187
-271 1016 c-517 1939 -567 2121 -612 2207 -28 55 -133 120 -210 130 -32 5 -80
-4 -192 -34 -83 -22 -442 -119 -800 -216 -630 -169 -785 -209 -791 -204 -1 2
-10 32 -19 68 -44 171 -227 855 -249 928 -29 94 -52 132 -108 172 l-39 29
-167 -1 -167 0 -325 -89z m866 -514 c-3 -5 -5 -2 -5 8 -1 28 -14 19 -46 -31
-42 -66 -147 -202 -156 -202 -4 0 -9 -6 -11 -14 -4 -21 -218 -257 -227 -251
-4 2 -26 -15 -48 -38 -31 -32 -287 -339 -356 -427 -7 -9 -47 -59 -90 -113 -85
-106 -93 -133 -10 -34 28 34 64 76 78 92 15 17 38 45 52 63 14 18 27 31 29 29
3 -3 -25 -62 -56 -117 -8 -14 -15 -27 -15 -30 -1 -18 -67 -140 -75 -140 -6 0
-10 -8 -10 -18 0 -10 -18 -53 -40 -96 -22 -43 -40 -92 -40 -108 0 -29 -36
-109 -52 -116 -5 -2 -8 -8 -8 -14 0 -13 -32 -82 -41 -88 -4 -3 -6 -19 -5 -37
2 -25 21 -48 97 -119 184 -172 404 -401 424 -440 10 -21 96 -117 190 -212 93
-95 172 -175 174 -178 2 -2 0 -4 -5 -4 -8 0 -246 203 -319 273 -16 15 -55 41
-85 57 -60 31 -144 99 -188 152 -90 110 -510 534 -519 525 -3 -4 2 -18 12 -33
15 -24 17 -41 10 -133 -3 -58 -15 -146 -26 -196 -10 -49 -19 -107 -19 -127 0
-21 -4 -38 -10 -38 -5 0 -10 25 -10 56 0 31 -7 100 -16 152 -14 80 -15 111 -6
182 6 47 14 96 18 109 5 15 3 22 -4 20 -9 -4 -183 -143 -299 -241 -24 -21 -46
-38 -48 -38 -19 0 31 49 177 176 148 130 192 176 346 363 97 118 256 309 352
425 275 331 424 521 455 578 58 107 236 325 339 414 40 34 56 55 57 73 0 16 8
0 20 -39 10 -36 17 -69 15 -75z m-578 -54 c28 -100 28 -105 -2 -97 -16 4 -29
0 -41 -14 -24 -27 -61 -25 -79 3 -12 18 -46 130 -46 151 0 3 8 6 18 6 14 0 22
-13 31 -52 23 -92 40 -107 76 -68 17 19 17 23 2 77 -16 59 -15 73 7 73 8 0 22
-32 34 -79z m-705 -3 c8 -13 47 -153 86 -311 68 -272 71 -290 56 -313 -8 -13
-23 -24 -32 -24 -22 0 -604 150 -624 161 -25 13 -33 47 -17 70 7 11 114 114
237 229 240 224 263 239 294 188z m480 2 c36 -29 50 -83 32 -126 -33 -78 -134
-71 -165 12 -35 91 60 171 133 114z m269 -197 c18 -21 59 -153 52 -165 -13
-21 -34 -5 -44 35 -24 91 -31 107 -51 107 -10 0 -26 -11 -34 -24 -15 -22 -15
-29 1 -81 13 -48 14 -59 3 -66 -20 -12 -25 -3 -49 90 -19 69 -20 85 -9 92 8 5
16 3 21 -4 5 -9 14 -6 30 11 27 26 59 28 80 5z m-220 -55 c9 -7 23 -39 33 -72
11 -41 22 -60 36 -63 31 -9 16 -28 -22 -28 -19 0 -41 -7 -51 -17 -32 -32 -85
-18 -101 26 -10 26 17 65 59 82 37 16 42 25 19 44 -11 9 -21 9 -46 -4 -40 -20
-49 -20 -49 -1 0 33 90 58 122 33z m-167 -55 c9 -32 22 -79 29 -105 8 -26 11
-50 8 -53 -17 -17 -30 3 -46 71 -10 41 -21 72 -24 69 -4 -4 -9 -32 -12 -62 -3
-32 -10 -58 -17 -60 -7 -3 -27 16 -45 41 -17 25 -33 44 -36 42 -2 -3 3 -29 12
-59 20 -67 20 -87 3 -87 -9 0 -24 38 -42 106 -24 89 -26 107 -14 115 22 14 31
7 68 -49 40 -59 51 -54 51 24 0 55 4 64 31 64 14 0 23 -15 34 -57z m-3503
-132 c-11 -6 -10 -33 3 -147 18 -162 23 -206 31 -256 3 -21 2 -38 -4 -38 -5 0
-24 78 -42 173 -22 118 -37 177 -49 187 -9 8 -20 23 -23 32 -4 9 -19 18 -35
20 -22 2 -13 7 37 20 75 19 102 22 82 9z m6711 -270 c-29 -32 -40 -46 -53 -71
-7 -13 -17 -29 -21 -34 -5 -6 -24 -31 -43 -56 -20 -25 -43 -54 -53 -65 -10
-11 -36 -43 -58 -71 -87 -111 -228 -254 -199 -201 3 6 -15 -13 -42 -43 -27
-30 -58 -64 -69 -76 -11 -12 -33 -39 -50 -60 -16 -21 -97 -119 -178 -219 -145
-176 -163 -199 -209 -260 -46 -61 13 -1 103 105 51 60 94 108 96 107 3 -4 -39
-91 -48 -97 -4 -3 -14 -27 -23 -54 -20 -58 -40 -89 -51 -78 -5 4 -5 2 -2 -5 6
-10 -6 -43 -35 -93 -5 -8 -11 -23 -14 -32 -4 -10 -10 -18 -14 -18 -4 0 -12
-18 -19 -40 -6 -22 -17 -40 -23 -40 -6 0 -8 -13 -5 -32 4 -33 -19 -98 -35 -98
-5 0 -6 -4 -3 -10 3 -5 0 -10 -8 -10 -7 0 -14 -6 -15 -12 -3 -32 -7 -53 -12
-58 -21 -20 -40 -64 -34 -78 4 -9 8 -22 8 -27 1 -6 37 -44 81 -85 210 -196
414 -409 439 -458 30 -60 53 -80 42 -37 -4 15 -9 40 -12 55 -7 30 -24 24 231
90 66 18 152 41 190 51 145 39 156 42 165 33 5 -5 32 -99 60 -209 28 -109 60
-231 71 -269 25 -93 24 -103 -8 -110 -16 -4 -144 -39 -286 -78 -174 -48 -261
-68 -268 -61 -6 6 -21 50 -34 99 -76 292 -75 288 -103 312 -46 38 -48 40 -98
65 -54 28 -131 91 -184 152 -125 143 -507 531 -516 522 -3 -3 0 -15 6 -28 16
-30 7 -245 -13 -319 -12 -44 -24 -126 -27 -184 0 -5 -3 -6 -6 -3 -8 7 -23 173
-31 330 -4 83 -1 118 11 154 9 25 14 48 12 51 -4 3 -36 -21 -178 -137 -48 -39
-46 -13 3 32 146 135 205 195 300 312 108 132 269 327 479 580 224 271 320
394 366 471 77 132 350 454 384 454 5 0 13 12 17 28 7 26 7 25 20 -20 13 -43
12 -49 -4 -67z m-6199 -179 c20 -73 20 -72 -3 -72 -11 0 -23 -4 -26 -10 -11
-18 -63 -11 -85 12 -39 43 -17 108 40 113 17 1 33 5 37 9 14 14 21 4 37 -52z
m-235 -64 c14 -61 14 -81 -2 -75 -7 3 -21 -1 -32 -9 -28 -21 -49 -17 -79 13
-22 22 -26 33 -22 58 8 39 27 57 64 59 17 1 34 5 38 9 12 11 20 -3 33 -55z
m-540 -125 c25 -94 25 -97 8 -90 -8 3 -23 -1 -34 -8 -10 -8 -26 -15 -36 -15
-25 0 -67 45 -67 73 0 45 24 62 112 76 4 0 12 -16 17 -36z m-315 -379 c24 -9
21 -61 -4 -74 -17 -9 -24 -6 -45 16 l-25 27 0 -32 c0 -38 -15 -40 -47 -5 -13
14 -27 23 -30 20 -4 -4 -1 -12 5 -18 14 -14 16 -48 3 -48 -5 0 -11 6 -14 13
-3 8 -10 5 -22 -10 -19 -27 -37 -29 -55 -8 -17 21 -30 19 -30 -5 0 -11 -5 -20
-12 -20 -16 0 -58 41 -58 57 0 19 17 16 29 -4 10 -16 11 -16 17 5 5 16 12 21
24 17 11 -3 20 1 24 10 6 17 41 20 51 5 13 -21 24 -9 18 21 -6 30 -5 31 18 17
13 -7 32 -19 42 -27 15 -13 17 -12 17 9 0 18 4 21 21 17 12 -3 22 0 26 9 6 15
22 18 47 8z m157 -330 c30 -20 81 -49 114 -65 63 -30 147 -101 184 -157 13
-18 68 -71 123 -119 125 -108 162 -143 153 -143 -4 0 -35 21 -68 47 -34 26
-90 68 -124 95 -35 26 -79 52 -99 57 -74 21 -175 103 -230 189 -19 29 -54 71
-77 93 -52 48 -45 50 24 3z m3244 -788 c36 -15 62 -54 52 -79 -3 -8 -33 -20
-66 -28 -46 -10 -61 -17 -59 -29 5 -23 47 -24 71 -2 47 42 83 33 52 -14 -42
-65 -130 -67 -172 -5 -40 58 -28 116 30 151 38 24 47 24 92 6z m-210 -68 c16
-15 32 -47 45 -91 l19 -68 -22 -8 c-31 -12 -34 -8 -48 55 -13 59 -42 90 -72
78 -26 -10 -30 -40 -12 -100 17 -60 12 -79 -21 -72 -12 2 -22 20 -32 58 -16
66 -27 80 -58 80 -38 0 -47 -30 -27 -100 14 -53 15 -63 2 -71 -28 -18 -36 -8
-62 84 -24 85 -25 93 -9 105 9 7 22 10 30 7 7 -2 24 2 38 11 17 11 36 15 61
11 29 -5 42 -1 65 18 37 31 69 32 103 3z m-339 -158 c13 -47 24 -90 24 -96 0
-15 -38 -25 -46 -13 -3 5 -17 0 -31 -11 -35 -27 -85 -26 -119 3 -20 18 -28 35
-32 75 -4 47 -2 54 27 83 26 25 38 30 63 27 20 -3 38 0 46 9 28 28 44 10 68
-77z m-268 48 c51 -187 55 -210 41 -219 -27 -17 -44 -8 -107 51 -63 59 -90 75
-78 45 19 -49 36 -126 31 -135 -3 -5 -15 -10 -25 -10 -14 0 -22 11 -30 43 -7
23 -20 73 -31 112 -25 90 -24 95 8 95 18 0 47 -19 95 -61 38 -34 71 -60 73
-57 2 2 -6 36 -17 77 -18 62 -20 74 -7 82 25 16 38 10 47 -23z m-681 -273 c29
-110 30 -121 15 -133 -9 -6 -23 -10 -33 -7 -9 3 -22 -1 -29 -10 -8 -9 -29 -15
-56 -15 -51 0 -89 33 -98 85 -13 68 40 130 101 119 37 -7 37 -6 23 32 -14 36
-5 56 22 52 20 -3 27 -18 55 -123z m217 63 c28 -40 20 -54 -38 -68 -74 -18
-86 -26 -62 -45 26 -20 28 -19 60 10 28 26 66 34 66 14 0 -6 -15 -26 -34 -45
-26 -26 -42 -34 -70 -34 -83 0 -138 112 -84 174 44 52 124 49 162 -6z m-458
-128 c18 -69 33 -128 34 -132 0 -5 -12 -8 -27 -8 -27 0 -29 3 -61 127 -27 101
-31 128 -20 135 30 19 41 1 74 -122z m-320 -94 c30 -112 31 -117 12 -127 -26
-14 -34 -6 -47 47 -10 41 -14 45 -34 40 -12 -4 -35 -9 -50 -13 -30 -6 -31 -9
-12 -86 5 -20 2 -27 -15 -32 -13 -4 -25 -3 -29 3 -9 15 -64 232 -60 236 2 2
13 6 24 8 16 2 23 -6 34 -42 8 -25 15 -46 16 -48 2 -2 23 2 49 9 50 12 55 24
35 76 -8 23 -7 30 8 40 9 7 22 12 27 10 6 -2 24 -56 42 -121z m215 85 c50 -51
36 -137 -28 -170 -88 -45 -186 56 -138 145 33 61 116 74 166 25z m-582 -78 c6
-21 22 -78 35 -128 27 -95 24 -111 -20 -100 -12 3 -27 -2 -34 -9 -36 -44 -121
-20 -147 41 -31 75 9 143 84 143 24 0 43 2 43 4 0 3 -5 17 -10 32 -14 35 -6
54 19 54 15 0 23 -10 30 -37z m-351 -222 c25 -93 23 -114 -11 -109 -12 1 -33
-5 -47 -15 -60 -42 -138 3 -147 85 -5 43 -3 50 26 78 25 26 38 31 68 28 23 -2
38 2 41 10 2 7 14 12 25 10 18 -2 26 -18 45 -87z m-287 42 c16 -10 29 -23 29
-30 0 -17 -49 -28 -63 -14 -18 18 -65 13 -87 -9 -26 -26 -26 -80 1 -114 29
-37 77 -36 112 4 26 29 67 41 67 20 0 -25 -32 -71 -60 -85 -16 -8 -49 -15 -74
-15 -87 0 -147 93 -114 178 27 72 122 104 189 65z m1586 -200 c9 -14 17 -36
18 -47 1 -55 -40 -75 -68 -33 -16 23 -15 24 -32 -28 -2 -8 -15 -15 -29 -15
-44 0 -62 100 -23 124 15 9 21 6 37 -14 20 -26 18 -28 35 25 7 24 43 17 62
-12z m4093 -13 c0 -5 -4 -10 -10 -10 -5 0 -10 -4 -10 -10 0 -5 6 -7 13 -4 20
7 50 -31 43 -54 -8 -25 -34 -36 -52 -21 -11 9 -18 6 -33 -12 -19 -23 -20 -23
-39 -6 -20 18 -20 18 -27 -3 -5 -15 -13 -20 -28 -18 -12 2 -21 9 -19 17 1 7
-5 19 -14 25 -11 9 -14 19 -9 35 6 19 12 22 35 17 22 -4 32 0 43 17 12 18 19
20 34 11 10 -6 18 -17 18 -24 0 -7 5 -15 11 -17 7 -2 10 6 6 23 -3 16 1 29 9
35 19 12 29 11 29 -1z m-1504 -150 c10 -34 9 -42 -7 -56 -19 -17 -24 -16 -76
16 -18 10 -35 15 -38 10 -3 -5 -1 -11 5 -15 6 -4 8 -11 5 -16 -9 -13 9 -11 23
3 9 9 12 8 12 -4 0 -21 -29 -31 -47 -16 -11 9 -17 9 -25 -3 -8 -12 -9 -11 -5
2 6 19 -10 39 -31 39 -10 0 -13 -9 -10 -30 6 -38 -5 -39 -18 -2 l-11 27 -17
-42 c-16 -39 -22 -43 -52 -43 -19 0 -37 -1 -41 -2 -5 -2 -9 7 -11 20 -2 12
-10 22 -19 22 -11 0 -14 -8 -11 -34 4 -38 -8 -38 -23 1 -13 34 -33 18 -25 -20
5 -25 4 -29 -6 -19 -10 10 -16 8 -29 -10 -15 -19 -21 -21 -42 -11 -22 10 -26
9 -30 -8 -6 -22 -26 -24 -52 -5 -16 12 -18 19 -10 43 11 29 45 39 53 15 3 -9
-3 -12 -14 -10 -13 2 -19 -3 -19 -17 0 -11 6 -20 14 -20 14 0 16 4 42 58 7 15
18 26 23 23 43 -17 46 -18 46 -3 0 17 27 30 41 21 6 -3 16 -1 23 5 16 14 46 4
46 -15 0 -8 4 -14 9 -14 6 0 6 12 0 32 -9 32 -4 51 9 33 13 -18 66 -14 96 8
23 16 32 18 47 9 25 -16 39 -15 39 2 0 21 19 30 35 16 11 -9 21 -7 44 11 17
13 31 26 31 31 0 23 17 3 26 -32z m368 -36 c20 -8 21 -63 2 -70 -8 -3 -24 0
-37 6 -20 11 -21 10 -16 -10 3 -13 2 -32 -4 -42 -13 -25 -49 -24 -49 1 0 30
-17 34 -40 11 -12 -12 -24 -19 -28 -16 -3 4 2 12 12 19 20 15 12 47 -11 47
-11 0 -14 -7 -10 -21 4 -15 0 -23 -14 -26 -10 -3 -19 -8 -19 -12 0 -4 -9 -7
-20 -8 -11 -1 -20 2 -20 8 0 5 6 9 14 9 8 0 23 16 35 35 17 30 24 34 49 29 21
-4 31 -2 35 10 7 19 53 22 59 4 3 -8 9 -4 17 10 12 23 19 26 45 16z m-4063
-123 c6 -42 5 -58 -3 -68 -13 -16 -50 -17 -65 -2 -7 7 -15 2 -27 -15 -21 -33
-63 -35 -75 -3 -21 57 -30 91 -25 98 9 14 24 10 24 -6 0 -11 7 -14 25 -9 18 4
32 1 45 -11 17 -16 20 -16 20 -2 0 8 7 22 15 31 13 12 21 13 40 4 14 -6 25
-14 26 -17z m2864 -62 c1 -13 6 -33 10 -44 8 -19 8 -19 -12 -2 -19 17 -20 16
-31 -8 -12 -26 -36 -33 -47 -15 -5 8 -11 8 -20 0 -11 -9 -14 -6 -17 12 -2 13
-11 24 -22 26 -16 3 -18 0 -13 -26 5 -24 2 -31 -14 -35 -15 -4 -23 1 -30 20
-12 31 -35 24 -32 -11 1 -17 -3 -26 -13 -26 -8 0 -14 -4 -14 -9 0 -15 -41 -24
-53 -12 -9 9 -16 6 -28 -10 -19 -26 -55 -19 -64 12 -8 24 20 60 41 52 20 -7
18 -21 -3 -19 -22 1 -30 -32 -9 -40 16 -6 50 19 40 29 -3 3 -1 14 5 25 11 21
48 35 56 21 3 -4 15 1 26 12 19 19 22 19 45 4 21 -13 24 -13 24 -1 0 22 32 36
53 24 14 -7 22 -4 36 13 17 21 18 21 44 4 15 -9 27 -13 27 -7 0 6 -5 14 -10
17 -13 8 -2 27 13 22 5 -1 11 -14 12 -28z m3050 -33 c0 -15 7 -31 15 -36 8 -5
11 -12 7 -17 -4 -4 -16 -2 -27 5 -16 10 -20 8 -25 -8 -4 -11 -12 -20 -20 -20
-7 0 -15 -10 -18 -22 -4 -24 -5 -22 -22 27 -7 19 -7 19 -16 -4 -8 -19 -14 -22
-38 -18 -21 5 -31 2 -35 -10 -5 -11 -14 -14 -36 -9 -18 3 -30 1 -30 -5 0 -6
-5 -7 -10 -4 -6 4 -18 1 -26 -6 -13 -11 -14 -9 -9 14 5 17 3 27 -4 27 -23 0
-10 25 14 26 14 1 22 -2 19 -8 -3 -5 -2 -17 2 -26 6 -13 9 -9 13 18 5 32 9 35
39 35 18 0 37 6 41 14 6 9 18 12 35 7 15 -4 26 -2 26 4 0 16 49 23 65 10 13
-11 15 -8 15 15 0 17 5 25 13 22 6 -2 12 -16 12 -31z m-1411 -168 c33 -46 9
-110 -28 -78 -12 9 -17 7 -26 -10 -9 -17 -17 -20 -37 -15 -17 4 -29 1 -38 -11
-18 -25 -69 -11 -60 17 4 11 2 26 -4 33 -8 9 -7 18 2 31 12 15 17 16 36 5 20
-10 25 -9 38 9 11 17 18 19 34 11 10 -6 19 -20 19 -30 0 -11 5 -20 11 -20 7 0
9 9 6 22 -6 23 8 58 23 58 5 0 16 -10 24 -22z m714 -18 c3 -8 0 -10 -9 -6 -8
4 -3 -1 11 -13 23 -19 24 -21 8 -37 -10 -10 -23 -14 -34 -10 -16 6 -16 7 1 20
17 12 17 13 1 19 -27 11 -36 0 -36 -43 0 -50 -16 -60 -24 -15 -8 40 -26 57
-26 23 0 -13 -9 -29 -20 -36 -17 -10 -24 -10 -44 3 -22 15 -24 14 -29 -5 -9
-37 -67 -19 -67 21 0 10 14 27 30 39 l30 21 0 -20 c0 -27 17 -27 25 -1 3 11 9
20 13 21 39 4 64 3 68 -3 8 -13 34 -9 34 5 0 14 38 37 54 33 6 -1 12 -8 14
-16z m-2817 -217 c9 -24 7 -30 -12 -46 -17 -13 -25 -15 -36 -6 -11 10 -18 7
-34 -9 -22 -24 -34 -27 -44 -12 -5 8 -11 8 -19 1 -7 -6 -15 -8 -19 -5 -6 6
-51 -35 -53 -48 -1 -5 -2 -11 -3 -15 -3 -20 -19 18 -25 59 -7 45 -6 48 19 54
17 4 32 1 44 -10 16 -15 19 -14 40 14 17 23 27 29 45 24 16 -4 25 0 29 10 4 9
18 16 32 16 19 0 28 -7 36 -27z m699 -382 c0 -29 -24 -49 -35 -31 -4 6 -13 10
-22 10 -11 0 -14 -6 -10 -22 4 -12 1 -28 -5 -35 -13 -16 -48 -17 -48 -2 0 6 9
9 20 6 13 -3 20 0 20 10 0 10 -6 12 -20 8 -11 -4 -20 -2 -20 4 0 6 7 11 16 11
10 0 14 7 12 23 -2 12 -10 22 -18 22 -8 0 -16 -10 -18 -22 -2 -13 -8 -23 -13
-23 -5 0 -9 -7 -9 -15 0 -15 -16 -20 -56 -16 -12 1 -24 -5 -27 -14 -4 -9 -13
-12 -22 -8 -14 5 -14 8 -3 15 7 6 9 11 3 14 -36 16 -40 24 -21 39 11 8 22 12
25 9 3 -3 -1 -9 -9 -15 -13 -8 -13 -10 0 -19 20 -13 36 -7 32 12 -4 23 24 41
54 35 18 -3 33 2 45 14 16 16 23 17 40 8 17 -9 23 -7 36 10 20 29 53 12 53
-28z m-310 -41 c0 -5 -6 -10 -12 -11 -7 0 -3 -5 9 -11 12 -6 23 -22 25 -37 2
-19 24 -41 82 -85 44 -33 75 -61 68 -64 -6 -2 -40 18 -74 44 -85 66 -118 81
-172 79 -25 -1 -43 1 -40 6 4 7 -26 29 -41 29 -4 0 -5 -13 -3 -30 3 -20 0 -30
-8 -30 -7 0 -14 10 -16 22 -2 12 -9 23 -17 26 -11 4 -12 -3 -7 -32 8 -41 -10
-51 -20 -12 -11 46 -2 60 45 68 26 4 49 4 56 -2 14 -12 25 -3 25 22 0 20 12
23 40 8 13 -7 21 -6 30 5 14 17 30 20 30 5z m-272 -82 c18 -18 15 -46 -8 -65
-11 -10 -20 -23 -20 -30 0 -27 -30 -13 -31 15 l0 27 -16 -22 c-8 -13 -22 -23
-30 -23 -8 0 -12 -4 -8 -9 3 -5 1 -12 -5 -16 -6 -3 -13 0 -16 8 -10 27 -45 27
-80 1 -18 -14 -38 -23 -43 -19 -6 3 -20 1 -31 -5 -17 -9 -22 -6 -34 22 l-15
33 6 -32 c4 -25 1 -33 -17 -43 -16 -8 -25 -8 -35 0 -9 7 -15 8 -20 0 -10 -16
-19 -12 -30 11 -14 30 -31 20 -27 -15 2 -18 0 -26 -7 -21 -6 3 -11 17 -11 30
0 13 -4 27 -10 30 -6 4 -10 -10 -10 -34 0 -43 -18 -56 -27 -21 -7 28 -23 25
-23 -4 0 -41 -18 -39 -40 4 -22 43 -23 83 -1 42 16 -30 33 -28 25 3 -8 30 11
34 26 5 11 -21 35 -17 27 4 -8 21 9 40 29 31 37 -15 72 -15 78 0 3 9 18 15 36
15 20 0 30 5 30 15 0 8 5 15 10 15 11 0 14 -7 24 -52 7 -30 13 -33 36 -18 13
8 12 11 -4 23 -12 9 -17 20 -13 31 7 18 32 22 42 6 3 -5 1 -10 -5 -10 -6 0 -8
-4 -5 -10 15 -24 35 -9 35 24 0 50 16 53 42 9 l23 -38 3 30 c4 35 19 47 48 40
12 -3 27 2 34 10 15 18 51 20 68 3z"/>
<path d="M8335 2575 c-5 -2 -29 -9 -52 -15 -50 -12 -52 -21 -26 -105 19 -62
21 -62 105 -39 65 19 66 20 42 106 -17 58 -29 67 -69 53z"/>
<path d="M8020 2476 c0 -23 21 -76 31 -76 5 0 6 -13 3 -30 -4 -19 -2 -30 5
-30 6 0 11 5 11 10 0 6 7 10 15 10 8 0 15 -9 15 -19 0 -24 19 -38 30 -21 6 9
12 9 29 -1 11 -8 21 -17 21 -21 0 -21 -35 -77 -51 -81 -23 -6 -25 9 -4 29 20
21 20 48 -1 40 -9 -3 -22 -6 -30 -6 -8 0 -14 -5 -14 -11 0 -6 -10 -25 -22 -41
-14 -21 -17 -29 -7 -26 8 2 18 14 24 26 12 26 29 30 21 5 -4 -14 9 -27 56 -56
33 -21 63 -35 67 -32 3 4 -2 12 -11 19 -20 15 -8 40 19 42 10 1 28 2 40 3 23
1 53 45 53 78 0 10 7 26 14 36 12 15 18 17 35 7 l21 -11 -25 -37 c-14 -20 -25
-46 -25 -58 0 -16 -10 -24 -47 -36 -41 -13 -48 -20 -56 -49 -4 -19 -19 -44
-32 -56 -14 -12 -25 -27 -25 -33 0 -5 -7 -10 -15 -10 -21 0 -19 13 5 35 27 25
26 32 -17 72 -31 30 -42 34 -70 30 -18 -3 -33 -2 -33 4 0 5 -7 9 -15 9 -20 0
-19 4 11 51 14 23 24 42 22 42 -2 1 -12 7 -23 13 -24 13 -60 3 -68 -20 -7 -18
-38 -21 -53 -6 -12 12 -39 -4 -30 -18 3 -6 14 -8 24 -6 44 11 55 -47 11 -61
-10 -4 -19 -13 -19 -20 0 -24 19 -26 40 -5 24 24 33 25 63 6 12 -8 38 -17 58
-20 26 -5 39 -13 43 -29 6 -21 7 -21 20 -4 18 23 26 21 26 -7 0 -13 -7 -26
-15 -30 -21 -8 -19 -28 5 -49 16 -13 18 -22 11 -35 -6 -12 -6 -23 0 -33 7 -9
12 -10 15 -3 3 6 11 20 19 30 13 17 16 17 25 4 8 -13 11 -11 16 8 4 12 10 22
15 22 14 0 11 -28 -3 -33 -7 -2 -10 -8 -6 -12 12 -13 38 3 38 24 0 28 20 37
27 12 7 -29 23 -27 23 3 0 13 7 26 15 29 20 8 29 -11 15 -28 -19 -23 6 -19 40
6 19 15 37 20 56 16 15 -3 39 -1 53 4 l24 10 -21 15 c-18 12 -20 19 -12 34 6
11 8 31 4 46 -6 22 -11 25 -33 21 -14 -3 -34 -9 -43 -12 -31 -12 -33 23 -4 50
29 26 33 41 14 48 -10 3 -9 12 4 34 l17 30 -40 18 c-46 21 -61 38 -29 33 21
-3 51 24 39 36 -7 8 -79 -13 -79 -23 0 -5 -11 -19 -23 -32 -25 -25 -42 -71
-38 -101 3 -25 -20 -23 -26 2 -6 21 -23 28 -23 9 0 -5 -13 -15 -30 -20 -16 -6
-30 -17 -30 -25 0 -8 -4 -14 -10 -14 -14 0 -13 27 1 36 6 3 17 22 25 40 13 30
17 33 34 24 25 -13 40 -5 40 22 0 18 -4 19 -37 13 -48 -9 -44 -9 -71 0 -18 6
-20 10 -11 21 7 8 9 17 5 21 -3 4 -12 -2 -20 -12 -13 -18 -15 -16 -27 23 -9
30 -21 48 -41 58 -15 8 -28 21 -28 29 0 8 -4 15 -10 15 -5 0 -10 -6 -10 -14z"/>
<path d="M7912 2461 c-34 -10 -65 -21 -68 -24 -6 -6 25 -128 36 -140 4 -5 39
0 76 11 62 17 69 22 66 43 -4 40 -32 129 -40 128 -4 0 -35 -9 -70 -18z"/>
<path d="M8015 2071 c-37 -11 -61 -24 -63 -33 -4 -19 26 -126 37 -132 15 -9
136 30 139 45 4 21 -32 132 -43 135 -6 1 -37 -6 -70 -15z"/>
</g>
</svg>
